<svg xmlns="http://www.w3.org/2000/svg" width="256" height="256" viewBox="0 0 256 256">
  <defs>
    <linearGradient id="g" x1="0" y1="0" x2="1" y2="1">
      <stop offset="0" stop-color="#4a4651"/>
      <stop offset="1" stop-color="#2f2b33"/>
    </linearGradient>
  </defs>
  <rect width="256" height="256" fill="url(#g)"/>
  <path d="M0 22 H256 M0 58 H256 M0 92 H256 M0 132 H256 M0 172 H256 M0 210 H256" stroke="#6b6473" stroke-opacity="0.23"/>
  <path d="M18 0 V256 M58 0 V256 M96 0 V256 M136 0 V256 M178 0 V256 M218 0 V256" stroke="#1f1c22" stroke-opacity="0.32"/>
  <path d="M18 64 C34 46 50 76 66 58 C78 46 92 68 106 54" fill="none" stroke="#857f8e" stroke-opacity="0.4"/>
  <path d="M148 98 C164 80 180 108 198 92 C210 84 222 104 236 90" fill="none" stroke="#928a98" stroke-opacity="0.38"/>
  <path d="M34 178 C48 160 64 184 80 170 C92 160 102 176 118 168" fill="none" stroke="#9f95a8" stroke-opacity="0.33"/>
</svg>
